<svg width="31" height="30" viewBox="0 0 31 30" fill="none" xmlns="http://www.w3.org/2000/svg">
<rect x="0.5" width="30" height="30" rx="8" fill="#FFEDE8"/>
<path d="M13.6378 16.7625L15.6734 18.7689C16.28 19.3669 16.28 20.3456 15.6734 20.9436C15.079 21.5295 14.1242 21.5295 13.5298 20.9436L8.94504 16.4244C8.15036 15.6411 8.15036 14.3589 8.94504 13.5756L13.5298 9.05643C14.1242 8.47053 15.079 8.47053 15.6734 9.05643C16.28 9.65439 16.28 10.6331 15.6734 11.2311L13.6378 13.2375L21.7437 13.2426C22.7139 13.2433 23.5 14.0299 23.5 15C23.5 15.9701 22.7139 16.7567 21.7438 16.7574L13.6378 16.7625Z" fill="url(#paint0_linear_2978_21453)"/>
<defs>
<linearGradient id="paint0_linear_2978_21453" x1="15.5254" y1="-1.8" x2="26.5547" y2="23.0333" gradientUnits="userSpaceOnUse">
<stop stop-color="#FFA149"/>
<stop offset="1" stop-color="#FB4A35"/>
</linearGradient>
</defs>
</svg>
