<svg width="31" height="30" viewBox="0 0 31 30" fill="none" xmlns="http://www.w3.org/2000/svg">
<rect x="0.5" width="30" height="30" rx="15" fill="#FFEDE8"/>
<path d="M18.4997 7.6283C19.0871 7.88766 19.6401 8.22096 20.1467 8.61976C20.6201 8.99242 20.6149 9.68692 20.1965 10.1204C19.7553 10.5775 19.0269 10.5648 18.5009 10.2087C17.928 9.82089 17.2874 9.54607 16.611 9.40207C15.8785 9.24777 15.1237 9.24777 14.3912 9.40207C14.0381 9.47635 13.6916 9.58836 13.3594 9.73465M18.4997 7.6283L13.3594 9.73465M18.4997 7.6283C18.0336 7.42329 17.5491 7.26709 17.0532 7.162L18.4997 7.6283ZM13.3594 9.73465L13.3997 9.82617C13.3998 9.82614 13.3998 9.82611 13.3999 9.82608L13.3594 9.73465ZM7.85921 13.369C7.83625 13.4841 7.82079 13.6025 7.80584 13.717C7.80409 13.7304 7.80235 13.7438 7.80061 13.7571H5.6752C5.14617 13.7571 4.87604 14.392 5.2429 14.7731L8.10745 17.7494C8.54017 18.199 9.25983 18.199 9.69255 17.7494L12.5571 14.7731C12.924 14.392 12.6538 13.7571 12.1248 13.7571H10.2328C10.3798 13.0788 10.6478 12.435 11.0231 11.8591L16.5903 9.49989C17.2538 9.64118 17.8825 9.91083 18.4448 10.2915C19.0002 10.6674 19.7851 10.6906 20.2685 10.1898C20.7212 9.72075 20.7358 8.95622 20.2086 8.54119C19.6955 8.13726 19.1353 7.7996 18.5401 7.53682L18.54 7.53676C18.0677 7.32901 17.5766 7.17069 17.0739 7.06417L17.0739 7.06415C16.0371 6.84528 14.9684 6.84528 13.9316 7.06415L13.9315 7.06418C13.4285 7.17114 12.9371 7.32984 12.4644 7.53791L12.4644 7.53793C11.0718 8.15178 9.8803 9.17052 9.03292 10.4709L9.03287 10.471C8.46253 11.3479 8.06381 12.3326 7.85921 13.369ZM7.85921 13.369C7.85922 13.369 7.85923 13.3689 7.85924 13.3689L7.9573 13.3885M7.85921 13.369C7.85921 13.369 7.8592 13.3691 7.85919 13.3691L7.9573 13.3885M7.9573 13.3885C7.93503 13.5 7.92024 13.6134 7.90543 13.7268C7.89976 13.7702 7.89409 13.8137 7.888 13.8571L9.1167 10.5255C8.55338 11.3917 8.15944 12.3644 7.9573 13.3885ZM20.767 16.2428H18.8752C18.3462 16.2428 18.076 15.6079 18.4429 15.2268L21.3075 12.2505C21.7402 11.8009 22.4598 11.8009 22.8925 12.2505L25.7571 15.2268C26.124 15.6079 25.8538 16.2428 25.3248 16.2428H23.1982C23.1966 16.2547 23.195 16.2666 23.1934 16.2786C23.178 16.3946 23.1622 16.514 23.1398 16.6303L23.1397 16.6308C22.9353 17.6664 22.5369 18.6503 21.9671 19.5266L21.9671 19.5267C20.8248 21.2812 19.0682 22.5047 17.0699 22.9357L17.0695 22.9358C16.0331 23.1547 14.9648 23.1547 13.9284 22.9358C13.9283 22.9358 13.9283 22.9358 13.9283 22.9357L13.949 22.8379C13.4562 22.7339 12.9689 22.5773 12.5025 22.3716L20.767 16.2428ZM20.767 16.2428C20.4651 17.6373 19.6603 18.8594 18.5173 19.6564L18.5169 19.6566C17.9337 20.0674 17.2782 20.354 16.5882 20.5C15.8697 20.6514 15.1292 20.6514 14.4107 20.5L20.767 16.2428Z" fill="url(#paint0_linear_2978_21455)" stroke="url(#paint1_linear_2978_21455)" stroke-width="0.2"/>
<defs>
<linearGradient id="paint0_linear_2978_21455" x1="15.5349" y1="-4.2" x2="26.574" y2="25.7041" gradientUnits="userSpaceOnUse">
<stop stop-color="#FFA149"/>
<stop offset="1" stop-color="#FB4A35"/>
</linearGradient>
<linearGradient id="paint1_linear_2978_21455" x1="15.5349" y1="-4.2" x2="26.574" y2="25.7041" gradientUnits="userSpaceOnUse">
<stop stop-color="#FFA149"/>
<stop offset="1" stop-color="#FB4A35"/>
</linearGradient>
</defs>
</svg>
