<svg width="31" height="30" viewBox="0 0 31 30" fill="none" xmlns="http://www.w3.org/2000/svg">
<rect x="0.5" width="30" height="30" rx="8" fill="#FFEDE8"/>
<path d="M17.3622 16.7625L15.3266 18.7689C14.72 19.3669 14.72 20.3456 15.3266 20.9436C15.921 21.5295 16.8758 21.5295 17.4702 20.9436L22.055 16.4244C22.8496 15.6411 22.8496 14.3589 22.055 13.5756L17.4702 9.05643C16.8758 8.47053 15.921 8.47053 15.3266 9.05643C14.72 9.65439 14.72 10.6331 15.3266 11.2311L17.3622 13.2375L9.25625 13.2426C8.28612 13.2433 7.5 14.0299 7.5 15C7.5 15.9701 8.28612 16.7567 9.25625 16.7574L17.3622 16.7625Z" fill="url(#paint0_linear_2978_21457)"/>
<defs>
<linearGradient id="paint0_linear_2978_21457" x1="15.4746" y1="-1.8" x2="4.44531" y2="23.0333" gradientUnits="userSpaceOnUse">
<stop stop-color="#FFA149"/>
<stop offset="1" stop-color="#FB4A35"/>
</linearGradient>
</defs>
</svg>
